# xmcd
#
# Track frame offsets:
#	150
#	14110
#	22900
#	32339
#	44522
#	54155
#	67003
#	76485
#	87253
#	97708
#	112710
#	123694
#	139575
#	153251
#
# Disc length: 2246 seconds
#
# Revision: 1
# Processed by: cddbd v1.5.1PL2 Copyright (c) Steve Scherf et al.
# Submitted via: audiograbber 1.82.02
#
DISCID=a408c40e
DTITLE=The Rizdales - Pay What You Can
DYEAR=2005
DGENRE=Country
TTITLE0=The Drink's Not On Me
TTITLE1=This Bed Was Made For Two
TTITLE2=Tall Tall Trees
TTITLE3=Sunday's I Can't Take
TTITLE4=My Window Faces The South
TTITLE5=Sadder Than You Know
TTITLE6=I Don't Wanna
TTITLE7=You'd Almost Think I'm In Love
TTITLE8=Down Down Down
TTITLE9=I Don't Miss You
TTITLE10=Folsom Prison Blues
TTITLE11=Swinging Doors
TTITLE12=How Cruel You Are
TTITLE13=I'll Be There
EXTD=
EXTT0=
EXTT1=
EXTT2=
EXTT3=
EXTT4=
EXTT5=
EXTT6=
EXTT7=
EXTT8=
EXTT9=
EXTT10=
EXTT11=
EXTT12=
EXTT13=
PLAYORDER=
